REM DIRINDEX 1\2,1\3,1\4,1\5,1\6
REM DIRNAME cjc129,folder01,folder02,folder03,folder04,folder05
TITLE ""
FILE "DISC1Track30.mp3" MP3
  TRACK 01 AUDIO
    TITLE "0:"
    INDEX 01 00:00:00
  TRACK 02 AUDIO
    TITLE "3:cjc129_0839"
    INDEX 01 00:00:03
  TRACK 03 AUDIO
    TITLE "0:"
    INDEX 01 00:01:17
  TRACK 04 AUDIO
    TITLE "5:cjc129_0840"
    INDEX 01 00:01:48
  TRACK 05 AUDIO
    TITLE "0:"
    INDEX 01 00:03:49
  TRACK 06 AUDIO
    TITLE "4:cjc129_0841"
    INDEX 01 00:04:35
  TRACK 07 AUDIO
    TITLE "0:"
    INDEX 01 00:05:44
  TRACK 08 AUDIO
    TITLE "6:cjc129_0842"
    INDEX 01 00:06:04
  TRACK 09 AUDIO
    TITLE "0:"
    INDEX 01 00:09:71
  TRACK 10 AUDIO
    TITLE "3:cjc129_0843"
    INDEX 01 00:11:46
  TRACK 11 AUDIO
    TITLE "0:"
    INDEX 01 00:12:71
  TRACK 12 AUDIO
    TITLE "5:cjc129_0844"
    INDEX 01 00:13:30
  TRACK 13 AUDIO
    TITLE "0:"
    INDEX 01 00:15:25
  TRACK 14 AUDIO
    TITLE "4:cjc129_0845"
    INDEX 01 00:16:16
  TRACK 15 AUDIO
    TITLE "0:"
    INDEX 01 00:17:41
  TRACK 16 AUDIO
    TITLE "6:cjc129_0846"
    INDEX 01 00:17:74
  TRACK 17 AUDIO
    TITLE "0:"
    INDEX 01 00:22:19
  TRACK 18 AUDIO
    TITLE "3:cjc129_0847"
    INDEX 01 00:23:67
  TRACK 19 AUDIO
    TITLE "0:"
    INDEX 01 00:25:23
  TRACK 20 AUDIO
    TITLE "5:cjc129_0848"
    INDEX 01 00:25:52
  TRACK 21 AUDIO
    TITLE "0:"
    INDEX 01 00:27:41
  TRACK 22 AUDIO
    TITLE "4:cjc129_0849"
    INDEX 01 00:28:31
  TRACK 23 AUDIO
    TITLE "0:"
    INDEX 01 00:29:62
  TRACK 24 AUDIO
    TITLE "6:cjc129_0850"
    INDEX 01 00:30:18
  TRACK 25 AUDIO
    TITLE "0:"
    INDEX 01 00:36:17
  TRACK 26 AUDIO
    TITLE "3:cjc129_0851"
    INDEX 01 00:37:65
  TRACK 27 AUDIO
    TITLE "0:"
    INDEX 01 00:39:07
  TRACK 28 AUDIO
    TITLE "5:cjc129_0852"
    INDEX 01 00:39:37
  TRACK 29 AUDIO
    TITLE "0:"
    INDEX 01 00:43:25
  TRACK 30 AUDIO
    TITLE "4:cjc129_0853"
    INDEX 01 00:44:12
  TRACK 31 AUDIO
    TITLE "0:"
    INDEX 01 00:45:26
  TRACK 32 AUDIO
    TITLE "6:cjc129_0854"
    INDEX 01 00:45:59
  TRACK 33 AUDIO
    TITLE "0:"
    INDEX 01 00:50:42
  TRACK 34 AUDIO
    TITLE "3:cjc129_0855"
    INDEX 01 00:52:20
  TRACK 35 AUDIO
    TITLE "0:"
    INDEX 01 00:53:57
  TRACK 36 AUDIO
    TITLE "5:cjc129_0856"
    INDEX 01 00:54:15
  TRACK 37 AUDIO
    TITLE "0:"
    INDEX 01 00:58:05
  TRACK 38 AUDIO
    TITLE "4:cjc129_0857"
    INDEX 01 00:58:73
  TRACK 39 AUDIO
    TITLE "0:"
    INDEX 01 01:00:35
  TRACK 40 AUDIO
    TITLE "6:cjc129_0858"
    INDEX 01 01:00:72
  TRACK 41 AUDIO
    TITLE "0:"
    INDEX 01 01:05:30
  TRACK 42 AUDIO
    TITLE "3:cjc129_0859"
    INDEX 01 01:07:06
  TRACK 43 AUDIO
    TITLE "0:"
    INDEX 01 01:08:29
  TRACK 44 AUDIO
    TITLE "5:cjc129_0860"
    INDEX 01 01:08:64
  TRACK 45 AUDIO
    TITLE "0:"
    INDEX 01 01:10:49
  TRACK 46 AUDIO
    TITLE "4:cjc129_0861"
    INDEX 01 01:11:41
  TRACK 47 AUDIO
    TITLE "0:"
    INDEX 01 01:12:64
  TRACK 48 AUDIO
    TITLE "6:cjc129_0862"
    INDEX 01 01:13:24
  TRACK 49 AUDIO
    TITLE "0:"
    INDEX 01 01:16:32
  TRACK 50 AUDIO
    TITLE "3:cjc129_0863"
    INDEX 01 01:18:11
  TRACK 51 AUDIO
    TITLE "0:"
    INDEX 01 01:19:32
  TRACK 52 AUDIO
    TITLE "5:cjc129_0864"
    INDEX 01 01:19:64
  TRACK 53 AUDIO
    TITLE "0:"
    INDEX 01 01:22:05
  TRACK 54 AUDIO
    TITLE "4:cjc129_0865"
    INDEX 01 01:23:03
  TRACK 55 AUDIO
    TITLE "0:"
    INDEX 01 01:24:22
  TRACK 56 AUDIO
    TITLE "6:cjc129_0866"
    INDEX 01 01:24:55
  TRACK 57 AUDIO
    TITLE "0:"
    INDEX 01 01:28:04
  TRACK 58 AUDIO
    TITLE "3:cjc129_0867"
    INDEX 01 01:29:54
  TRACK 59 AUDIO
    TITLE "0:"
    INDEX 01 01:30:69
  TRACK 60 AUDIO
    TITLE "5:cjc129_0868"
    INDEX 01 01:31:28
  TRACK 61 AUDIO
    TITLE "0:"
    INDEX 01 01:37:56
  TRACK 62 AUDIO
    TITLE "4:cjc129_0869"
    INDEX 01 01:38:47
  TRACK 63 AUDIO
    TITLE "0:"
    INDEX 01 01:39:64
  TRACK 64 AUDIO
    TITLE "6:cjc129_0870"
    INDEX 01 01:40:19
  TRACK 65 AUDIO
    TITLE "0:"
    INDEX 01 01:44:52
